<?xml version="1.0" standalone="no"?><!DOCTYPE svg PUBLIC "-//W3C//DTD SVG 1.1//EN" "http://www.w3.org/Graphics/SVG/1.1/DTD/svg11.dtd"><svg t="1715832785372" class="icon" viewBox="0 0 1024 1024" version="1.1" xmlns="http://www.w3.org/2000/svg" p-id="7144" xmlns:xlink="http://www.w3.org/1999/xlink" width="200" height="200"><path d="M554.666667 85.333333a42.666667 42.666667 0 1 0-85.333334 0v37.632L127.701333 293.76A42.666667 42.666667 0 0 0 42.666667 298.666667v426.666666a42.666667 42.666667 0 0 0 23.594666 38.144l426.666667 213.333334a42.666667 42.666667 0 0 0 38.144 0l426.666667-213.333334A42.666667 42.666667 0 0 0 981.333333 725.333333V298.666667a42.666667 42.666667 0 0 0-85.077333-4.906667L554.666667 122.965333V85.333333z m-85.333334 133.034667v96.597333l-192 96L180.736 362.666667 469.333333 218.368z m85.333334 96.597333V218.368L843.264 362.666667 746.666667 410.965333 554.666667 314.965333z m-426.666667 170.666667v-53.930667l53.930667 26.965334L128 485.632z m714.069333-26.965333L896 431.701333v53.930667l-53.930667-26.965333zM180.736 554.666667L277.333333 506.368l192 96v96.597333L180.736 554.666667z m351.146667 251.093333a42.453333 42.453333 0 0 1-39.722667 0L128 623.701333v75.264l384 192 384-192v-75.264l-364.16 182.058667zM554.666667 602.368l192-96L843.264 554.666667 554.666667 698.965333v-96.597333z m96.597333-143.701333l-96.853333 48.426666a42.666667 42.666667 0 0 0-84.778667 0l-96.853333-48.426666L512 389.034667l139.264 69.632z" fill="#000000" fill-opacity=".85" p-id="7145"></path><path d="M512 810.666667a42.453333 42.453333 0 0 0 19.84-4.906667L896 623.701333v75.264l-384 192-384-192v-75.264l364.16 182.058667A42.453333 42.453333 0 0 0 512 810.666667z" fill="#000000" fill-opacity=".85" p-id="7146"></path></svg>