<?xml version="1.0" standalone="no"?><!DOCTYPE svg PUBLIC "-//W3C//DTD SVG 1.1//EN" "http://www.w3.org/Graphics/SVG/1.1/DTD/svg11.dtd"><svg t="1715832754873" class="icon" viewBox="0 0 1024 1024" version="1.1" xmlns="http://www.w3.org/2000/svg" p-id="6100" xmlns:xlink="http://www.w3.org/1999/xlink" width="200" height="200"><path d="M625.7150531 433.94669526c-14.33191305-2.45805015-27.06541812-4.64746172-41.30330506-7.09207868 5.10414926 13.70060977 9.68445131 25.97743054 14.88262339 39.94667567 9.2680602-11.49776502 17.51528931-21.7597899 26.42068167-32.85459699zM561.52367093 560.94596703c14.18416053 2.43118693 27.09228128 4.64746172 41.58537684 7.13237511-4.99669315-13.74090625-9.49640233-26.1251798-14.46622908-39.81235642-9.56356199 11.5111982-17.95854361 21.63890383-27.11914776 32.67998131zM710.87373943 380.52775192c-9.37551631 11.32314929-17.81079109 21.50458455-26.56843414 32.07554449 14.22445693 2.44461693 27.25346708 4.67432493 41.04809969 7.03835226-4.84894069-13.06930652-9.40237954-25.38642371-14.47966555-39.11389675zM665.32593057 646.41358841c9.0665781-10.77243886 17.30037714-20.56434623 26.32666195-31.29648874-14.11700083-2.4177537-26.98482524-4.63402848-40.80632426-6.99805579 4.98325997 13.20362583 9.55012881 25.26553445 14.47966231 38.29454453zM814.62227266 466.45206078c-13.98268159-2.40432371-26.81021274-4.6071653-41.11525931-7.05178216 4.66089491 13.43196798 8.93225876 25.78938161 13.78120262 39.77205996 9.57699523-11.47090181 18.07942973-21.65233383 27.33405669-32.7202778zM762.50623228 521.59029815c-8.04575012-21.82694959-15.7959953-43.76135523-23.94920151-65.54801156-0.71189289-1.89390656-3.41172165-3.85497595-5.49367706-4.27136703-10.9470546-2.20284159-21.98813529-3.92213558-33.00234956-5.81604216-11.37687888-1.94763619-22.74032465-4.05645487-34.17092994-5.72201929-1.94763619-0.2820718-4.91610029 0.65816646-6.12497719 2.10881874-15.04380592 17.98540685-29.80554006 36.21258902-44.78218636 54.26515545-2.33716409 2.82071477-2.67296234 5.34592462-1.43722224 8.71734984 8.08604659 22.01499852 15.9437478 44.11058666 24.13725044 66.08528879 0.65816646 1.78645045 3.12964983 3.73408666 5.03698959 4.08331811 22.35079675 4.05645487 44.74188992 7.91143082 67.1732795 11.5111982 2.06852226 0.33579827 5.29219499-0.75218937 6.60852792-2.3371609 14.93634987-17.82422427 29.5637647-35.91708724 44.41952168-53.82190115 2.47148336-2.96846412 2.92817087-5.60112999 1.58497473-9.25462704zM750.02793261 593.31701334c14.53339193 2.49834659 27.4415128 4.71462134 41.62567327 7.14580825-5.06385279-13.64688015-9.68445131-26.08488342-14.80203057-39.90638244-9.33521988 11.39030893-17.68990508 21.59860737-26.8236427 32.76057419z" p-id="6101"></path><path d="M923.47495511 174.29329201l-370.21194325-63.51978254c-27.1863074-4.66089491-53.00255221 13.59315369-57.6634472 40.76602792l-106.77072375 622.37030672c-4.66089491 27.1863074 13.59315369 53.00255221 40.76602469 57.66344395l370.2119465 63.51978571c27.1863074 4.66089491 53.00255221-13.59315369 57.66344392-40.76602791l106.77072698-622.37030677c4.67432493-27.1728742-13.57972051-52.989119-40.76602789-57.66344708z m-75.46080504 649.55661414c-5.09071603 29.69808402-33.39187737 49.71171984-63.08996139 44.6075706l-332.41438273-57.03214065c-29.69808402-5.09071603-49.71171984-33.39187737-44.60757059-63.08996138l96.80420385-564.23674528c5.09071603-29.69808402 33.39187737-49.71171984 63.08996141-44.60757063l332.41438269 57.03214385c29.69808402 5.09071603 49.69828662 33.39187737 44.60757062 63.08996139l-96.80420386 564.2367421z" p-id="6102"></path><path d="M898.62581178 205.79126289l-332.41438271-57.03214386c-24.58050477-4.2176374-48.01929222 12.34398041-52.23692967 36.93791514l-96.80420388 564.23674529c-4.2176374 24.58050477 12.34398041 48.01929222 36.93791519 52.2369296l332.4143827 57.03214072c24.58050477 4.2176374 48.01929222-12.35741041 52.23692967-36.93791516l96.80420384-564.2367421c4.20420739-24.58050477-12.35741041-48.01929222-36.93791514-52.23692963z m-84.58111274 429.04396766c-27.33405666-4.31166347-54.68154659-8.48900447-82.00217328-12.93498407-3.81467951-0.61787006-6.17870677 0.18804892-8.6770534 3.22367267-21.15535309 25.74908516-42.4853187 51.350421-63.77499106 76.992047-1.42378903 1.71929086-2.90130447 3.38485523-4.98326 5.8026121-12.31711717-33.60678638-24.35215936-66.08528876-36.03797649-98.6981136-1.86704333-5.22503532-4.43254957-7.6159258-10.06054279-8.62332373-32.46506917-5.78917891-64.83611543-12.07534177-97.24746133-18.18688576-1.85361328-0.34923146-3.70722348-0.64473327-6.75628049-1.16858048 1.74615725-2.18941155 2.92817087-3.72065662 4.16391101-5.21160531 21.46428814-25.97743054 42.88827982-51.99515428 64.47345403-77.87855877 2.36402726-2.83414481 2.74012194-5.13101247 1.46408539-8.58303051-11.61865428-31.22932906-23.06269282-62.539251-34.54702779-93.8223065-0.71189289-1.94763619-1.37005938-3.90870238-2.40432051-6.87716653 2.51177981 0.26863861 4.43254957 0.38952786 6.3264561 0.68502969 33.32471777 5.21160528 66.67629557 10.36948101 99.97415012 15.79599531 4.13704775 0.67159968 6.4876418-0.29550178 9.08001125-3.47887812 22.43138962-27.37435313 45.0508249-54.60095694 68.24783706-82.63347657 1.03426114 2.59236945 1.86704333 4.55343887 2.60580264 6.56823158 11.52463139 31.26962547 23.11641935 62.51238462 34.46643182 93.84917287 1.45065221 4.01615845 3.33112879 5.88320181 7.72338509 6.66225438 32.65311812 5.82947536 65.23907651 11.99474896 97.85189821 18.06599968 2.17597829 0.4029579 4.32509349 0.95366828 7.44131012 1.66556437-1.67899758 2.20284159-2.83414481 3.8012463-4.08331806 5.31906141-21.32996878 25.84310802-42.63307121 51.7265157-64.09735936 77.46216766-2.52520985 3.02219376-2.87444126 5.42651426-1.50438189 9.09344126 11.64551748 31.22932906 23.06269282 62.539251 34.52016146 93.82230978 0.68502971 1.88047653 1.23574004 3.81467951 2.33716404 7.25326116-8.95912522-1.51781188-16.70937034-2.94160091-24.49991189-4.16391097z" p-id="6103"></path><path d="M297.93470207 507.94341482c12.96185047 6.78314363 24.56707155 12.84096436 37.77069742 19.75842728-0.805919-14.74830414-1.53124511-27.89820027-2.32373094-42.09579082-12.29025075 7.75024511-23.22387535 14.64084802-35.44696648 22.33736354zM406.22324099 600.47625479c-12.90812401-6.8771697-24.52677511-13.08273972-37.38117268-19.93304299 0.59100679 14.94978309 1.11485401 28.08624927 1.67899756 42.41815911 12.1827979-7.65622227 23.26417179-14.64084802 35.70217512-22.48511612zM362.67679469 430.56184002c12.20966113-7.6965187 23.39849109-14.74830414 35.23205753-22.20304745-12.33054717-6.4876418-23.9626347-12.59918897-36.91105193-19.40919584 0.59100679 14.69457447 1.12828401 27.91163347 1.6789944 41.61224329zM432.06634898 426.61284119c-1.78645045-0.92680507-5.11757925-0.57757361-6.94432935 0.49698072-9.6172917 5.68172286-18.97937157 11.77983681-28.43547749 17.73020154-9.76504096 6.15184359-19.62410799 12.19622794-29.22796643 18.5898468-1.63870117 1.08799075-3.21023948 3.77438309-3.14307983 5.66828966 0.83278218 23.43878753 2.04165904 46.86414181 2.96846411 70.28949612 0.14775254 3.653497 1.58497153 5.77574573 4.75491776 7.44131014 14.51995876 7.68308546 28.98619105 15.47363026 43.50614983 23.18358211l23.38505791-139.79993972c-2.28343443-1.19544688-4.56686884-2.40432371-6.86373651-3.59976737z" p-id="6104"></path><path d="M456.91549232 882.1312233c-25.4938766 16.06463709-59.28871187 8.39498157-75.35334894-17.09889813l-305.18777894-484.34338752c-16.06463709-25.4938766-8.39498157-59.28871187 17.09889819-75.35334895l285.34875878-179.80034504c25.4938766-16.06463709 59.28871187-8.39498157 75.35334896 17.09889818l25.97743054 41.22271222 3.58633416-21.45085493-33.59335319-53.3249172c-14.70800771-23.3313314-45.53437569-30.32938724-68.86571033-15.6213828l-317.80039785 200.24380204c-23.3313314 14.70800771-30.32938724 45.53437569-15.62137957 68.86570713l336.63202013 534.25658951c14.70800771 23.3313314 45.53437569 30.32938724 68.86570708 15.62137954l88.39579228-55.68894449-35.19176109-5.88320183-49.64456021 31.25619227z" p-id="6105"></path><path d="M380.55474541 779.16174588l23.58654003-140.99538661c-18.85848542 11.49776502-37.77069729 22.91494034-56.64261597 34.37241216-1.61183475 0.98053471-3.18337627 2.00136268-5.80261216 3.65349381-0.16118256-2.79384838-0.30893502-4.72805459-0.38952469-6.64882435-1.3969258-33.67394601-2.86100805-67.34789524-4.11018449-101.02184126-0.1343193-3.68036021-1.3969258-5.65485965-4.64746173-7.36072043-29.52346827-15.46019701-58.95291367-31.0950098-88.40922229-46.67609291-1.82674689-0.96710149-3.64006382-2.00136268-6.38018573-3.50574451 2.05509229-1.47751543 3.55947092-2.67296234 5.15787573-3.72065665 28.27429493-18.40179791 56.50829674-36.85732549 84.90348091-55.08450767 3.51917453-2.25657121 4.6205985-4.55343887 4.43254957-8.650187-1.61183475-35.36637679-2.99533053-70.73275045-4.47284598-107.06622876 2.49834659 1.23574004 4.43254957 2.13568193 6.32645613 3.14307988 29.46974186 15.55421991 58.9797769 31.04128012 88.368929 46.75668569 3.76094989 2.01479583 6.42048218 2.14911516 10.19486531-0.20147892 5.06385279-3.14307983 10.12770562-6.25929647 15.20498843-9.38894633l29.93985933-178.94069963-31.59199054-50.141541c-13.29764869-21.10162346-41.27644183-27.45494601-62.37806845-14.15729724L98.48338585 313.28731278c-21.10162346 13.29764869-27.45494601 41.27644183-14.15729417 62.37806846l305.18777893 484.34338747c13.29764869 21.10162346 41.27644183 27.45494601 62.37806532 14.15729736l40.69886824-25.64163229-71.02825543-11.88729287c-27.1863074-4.54000564-45.54780887-30.27566076-41.00780333-57.47539503z" p-id="6106"></path></svg>