<?xml version="1.0" standalone="no"?><!DOCTYPE svg PUBLIC "-//W3C//DTD SVG 1.1//EN" "http://www.w3.org/Graphics/SVG/1.1/DTD/svg11.dtd"><svg t="1715898236333" class="icon" viewBox="0 0 1024 1024" version="1.1" xmlns="http://www.w3.org/2000/svg" p-id="5100" xmlns:xlink="http://www.w3.org/1999/xlink" width="200" height="200"><path d="M512 0a512 512 0 1 1-512 512 512 512 0 0 1 512-512z m0 76.8A435.2 435.2 0 1 0 947.2 512 435.2 435.2 0 0 0 512 76.8z m0 307.2a38.4 38.4 0 0 1 38.4 38.4V691.2h38.4a38.4 38.4 0 0 1 0 76.8h-153.6a38.4 38.4 0 1 1 0-76.8h38.4V460.8H435.2a38.4 38.4 0 0 1 0-76.8H512z m0-153.6a51.2 51.2 0 1 1-51.2 51.2 51.2 51.2 0 0 1 51.2-51.2z" fill="#2c2c2c" p-id="5101"></path></svg>