<?xml version="1.0" standalone="no"?><!DOCTYPE svg PUBLIC "-//W3C//DTD SVG 1.1//EN" "http://www.w3.org/Graphics/SVG/1.1/DTD/svg11.dtd"><svg t="1715833826085" class="icon" viewBox="0 0 1024 1024" version="1.1" xmlns="http://www.w3.org/2000/svg" p-id="8953" xmlns:xlink="http://www.w3.org/1999/xlink" width="200" height="200"><path d="M866.133333 554.666667" p-id="8954"></path><path d="M469.333333 896c-213.333333 0-384-170.666667-384-384 0-102.4 38.4-200.533333 110.933333-273.066667C268.8 166.4 366.933333 128 469.333333 128c213.333333 0 384 170.666667 384 384 0 25.6-17.066667 42.666667-42.666667 42.666667s-42.666667-17.066667-42.666667-42.666667c0-166.4-132.266667-298.666667-298.666667-298.666667C388.266667 213.333333 315.733333 243.2 256 298.666667c-55.466667 55.466667-85.333333 132.266667-85.333333 213.333333 0 166.4 132.266667 298.666667 298.666667 298.666667 81.066667 0 153.6-29.866667 213.333333-85.333333 17.066667-17.066667 42.666667-17.066667 59.733333 0 17.066667 17.066667 17.066667 42.666667 0 59.733333C669.866667 857.6 571.733333 896 469.333333 896z" p-id="8955"></path><path d="M810.666667 554.666667c-8.533333 0-17.066667-4.266667-25.6-8.533333L640 439.466667c-17.066667-12.8-21.333333-42.666667-8.533333-59.733333 12.8-17.066667 38.4-21.333333 59.733333-8.533333l145.066667 106.666667c17.066667 12.8 21.333333 42.666667 8.533333 59.733333C836.266667 550.4 823.466667 554.666667 810.666667 554.666667z" p-id="8956"></path><path d="M810.666667 554.666667c-8.533333 0-17.066667-4.266667-25.6-8.533333-17.066667-12.8-21.333333-42.666667-8.533333-59.733333L883.2 341.333333c12.8-17.066667 42.666667-21.333333 59.733333-8.533333 17.066667 12.8 21.333333 42.666667 8.533333 59.733333l-106.666667 145.066667C836.266667 550.4 823.466667 554.666667 810.666667 554.666667z" p-id="8957"></path></svg>